<?xml version="1.0" encoding="iso-8859-1"?>
<!-- Generator: Adobe Illustrator 19.0.0, SVG Export Plug-In . SVG Version: 6.00 Build 0)  -->
<svg version="1.1" id="Capa_1" xmlns="http://www.w3.org/2000/svg" xmlns:xlink="http://www.w3.org/1999/xlink" x="0px" y="0px"
	 viewBox="0 0 60.001 60.001" style="enable-background:new 0 0 60.001 60.001;" xml:space="preserve">
<path d="M52.397,0.264l-4.979-0.247c-4.85-0.248-9.141,2.233-11.889,4.351c-1.315,1.013-2.509,2.332-3.65,4.03
	c-1.933,2.879-6.643,6.044-8.55,7.254l-0.788-1.206c-0.563-0.858-1.718-1.101-2.576-0.54l-6.903,4.51
	c-0.417,0.272-0.702,0.69-0.804,1.177c-0.102,0.486-0.009,0.983,0.264,1.4l0.469,0.717l-2.464,1.61
	c-0.355,0.232-0.599,0.588-0.686,1.003c-0.087,0.416-0.007,0.84,0.225,1.195l2.331,3.567c0.232,0.355,0.588,0.599,1.003,0.686
	c0.11,0.023,0.22,0.034,0.33,0.034c0.305,0,0.604-0.088,0.865-0.259l2.092-1.367c0.821,1.866,1.466,3.81,1.927,5.82H15.5v11
	c0,9.164-5.944,12.411-7.134,12.968c-0.018,0.008-0.03,0.023-0.047,0.032H4.5v2h3.518H42.21h4.29v-2h-3.771l-0.019-0.01
	c-1.037-0.543-6.209-3.726-6.209-12.99v-11h-3.608c1.376-1.632,2.339-3.545,2.764-5.573l0.148-0.707l-0.783-0.456
	C32.51,25.8,30.207,23.98,28.171,21.9c0.332-0.255,0.676-0.523,1.021-0.796c1.814-1.437,3.479-3.245,5.088-5.529
	c3.626-5.146,10.391-8.032,12.378-8.794c0.4-0.154,0.819-0.221,1.246-0.2l4.168,0.208c0.883,0.036,1.704-0.256,2.352-0.843
	c0.648-0.586,1.029-1.388,1.072-2.257C55.585,1.889,54.195,0.354,52.397,0.264z M15.818,26.359l-1.972,1.288l-1.88-2.877
	l2.119-1.385l0.078,0.12c0.026,0.039,0.048,0.08,0.074,0.119C14.793,24.485,15.324,25.399,15.818,26.359z M20.665,33.981
	c0.128,0.009,0.255,0.016,0.383,0.02H20.67C20.669,33.994,20.667,33.987,20.665,33.981z M39.389,58.001H34.5v-3c0-0.552-0.448-1-1-1
	s-1,0.448-1,1v3h-3v-6c0-0.552-0.448-1-1-1s-1,0.448-1,1v6h-3v-2c0-0.552-0.448-1-1-1s-1,0.448-1,1v2h-3v-3c0-0.552-0.448-1-1-1
	s-1,0.448-1,1v3h-5.565c2.462-2.064,5.565-6.045,5.565-13v-9h1.526H26.5v2c0,0.552,0.448,1,1,1s1-0.448,1-1v-2h2v3
	c0,0.552,0.448,1,1,1c0.552,0,1-0.448,1-1v-3h2v9C34.5,51.983,37.226,55.951,39.389,58.001z M30.104,34.001h-8.405
	c1.919-0.05,3.777-0.599,5.397-1.646c1.917-1.24,3.333-3.061,4.106-5.21c0.757,0.548,1.529,1.077,2.328,1.561
	C32.959,30.708,31.764,32.559,30.104,34.001z M29.521,25.846c-0.559,2.01-1.786,3.712-3.511,4.828
	c-1.725,1.116-3.787,1.543-5.865,1.244c-0.467-1.664-1.055-3.281-1.762-4.846l0.009-0.006l-0.149-0.308
	c-0.374-0.808-0.784-1.599-1.221-2.377c-0.035-0.062-0.069-0.125-0.104-0.187c-0.344-0.603-0.699-1.2-1.081-1.784l-1.565-2.396
	l6.671-4.358l0.677,1.036l0,0l0.889,1.36c0.302,0.462,0.623,0.918,0.953,1.371c0.128,0.177,0.26,0.351,0.392,0.526
	c0.197,0.259,0.398,0.516,0.603,0.772c0.17,0.213,0.339,0.426,0.515,0.635c0.22,0.262,0.449,0.518,0.678,0.775
	c0.176,0.197,0.347,0.397,0.527,0.59l0.358,0.392l0.015-0.011C27.486,24.074,28.479,24.99,29.521,25.846z M53.082,4.462
	c-0.252,0.228-0.579,0.345-0.91,0.328l-4.168-0.207c-0.701-0.035-1.399,0.076-2.062,0.33c-2.718,1.042-9.453,4.055-13.297,9.509
	c-1.498,2.125-3.033,3.798-4.694,5.113c-0.387,0.306-0.773,0.607-1.141,0.888c-0.031-0.036-0.064-0.071-0.095-0.108
	c-0.308-0.358-0.601-0.724-0.89-1.091c-0.123-0.156-0.249-0.31-0.369-0.469c-0.233-0.307-0.451-0.619-0.671-0.931
	c-0.117-0.167-0.235-0.333-0.349-0.502c2.078-1.318,6.963-4.619,9.104-7.809c1.019-1.517,2.069-2.681,3.21-3.561
	C39.232,4.04,43.088,1.8,47.319,2.014l4.979,0.247c0.697,0.035,1.236,0.63,1.201,1.328C53.482,3.924,53.334,4.234,53.082,4.462z"/>
<g>
</g>
<g>
</g>
<g>
</g>
<g>
</g>
<g>
</g>
<g>
</g>
<g>
</g>
<g>
</g>
<g>
</g>
<g>
</g>
<g>
</g>
<g>
</g>
<g>
</g>
<g>
</g>
<g>
</g>
</svg>
