<?xml version="1.0" encoding="iso-8859-1"?>
<!-- Generator: Adobe Illustrator 18.0.0, SVG Export Plug-In . SVG Version: 6.00 Build 0)  -->
<!DOCTYPE svg PUBLIC "-//W3C//DTD SVG 1.1//EN" "http://www.w3.org/Graphics/SVG/1.1/DTD/svg11.dtd">
<svg version="1.1" id="Capa_1" xmlns="http://www.w3.org/2000/svg" xmlns:xlink="http://www.w3.org/1999/xlink" x="0px" y="0px"
	 viewBox="0 0 465 465" style="enable-background:new 0 0 465 465;" xml:space="preserve">
<g>
	<path d="M227.5,142.673h18c3.59,0,6.5-2.91,6.5-6.5s-2.91-6.5-6.5-6.5h-18c-3.59,0-6.5,2.91-6.5,6.5S223.91,142.673,227.5,142.673z
		"/>
	<path d="M458.5,359.673h-10.983l-23.732-77.405c-0.837-2.73-3.358-4.595-6.214-4.595h-28.25l-22.263-73.387
		c-0.831-2.74-3.357-4.613-6.22-4.613h-28.421l-16.503-65.097c-0.731-2.884-3.326-4.903-6.301-4.903h-10.178l-9.093-32.591
		c-0.888-3.181-4.021-5.192-7.281-4.673l-81.485,12.946c-1.867,0.297-3.513,1.392-4.507,3l-13.19,21.318H155.81
		c-2.975,0-5.57,2.019-6.301,4.903l-16.503,65.097h-15.646c-2.863,0-5.389,1.874-6.22,4.613l-22.263,73.387H47.852
		c-2.856,0-5.377,1.864-6.214,4.595l-23.732,77.405H6.5c-3.59,0-6.5,2.91-6.5,6.5s2.91,6.5,6.5,6.5h16.187c0.009,0,0.042,0,0.051,0
		H458.5c3.59,0,6.5-2.91,6.5-6.5S462.09,359.673,458.5,359.673z M52.658,290.673h32.275l-6.202,20.443
		c-1.042,3.435,0.898,7.065,4.333,8.107c0.629,0.191,1.264,0.282,1.889,0.282c2.788,0,5.366-1.809,6.218-4.615l31.008-102.217h43.32
		c3.59,0,6.5-2.91,6.5-6.5s-2.91-6.5-6.5-6.5h-19.083l14.451-57H208.5c3.59,0,6.5-2.91,6.5-6.5s-2.91-6.5-6.5-6.5h-9.334
		l7.391-11.946l72.821-11.57l6.561,23.516H280.5c-3.59,0-6.5,2.91-6.5,6.5s2.91,6.5,6.5,6.5h24.055l23.946,94.456
		c0.747,2.944,3.392,4.904,6.296,4.904c0.529,0,1.066-0.065,1.602-0.201c3.48-0.882,5.585-4.418,4.704-7.898l-5.39-21.262h20.305
		l19.719,65H341.5c-3.59,0-6.5,2.91-6.5,6.5s2.91,6.5,6.5,6.5h71.265l21.155,69h-87.21l-2.713-12.844
		c-0.635-3.005-3.288-5.156-6.36-5.156h-9.202l-6.451-33.741c-0.369-1.928-1.588-3.586-3.32-4.512l-25.448-13.605l-19.38-34.992
		c-1.145-2.067-3.322-3.351-5.686-3.351h-57.47c-2.584,0-4.923,1.531-5.958,3.9l-15.663,35.885l-26.35,11.978
		c-1.92,0.873-3.298,2.624-3.694,4.696l-4.35,22.741h-18.039c-3.072,0-5.725,2.151-6.36,5.156l-5.037,23.844H31.502L52.658,290.673z
		 M302.883,346.829l-2.714,12.844H193.77l-5.038-23.844c-0.635-3.005-3.288-5.156-6.359-5.156h-14.472l3.251-16.995l25.558-11.618
		c1.461-0.665,2.625-1.846,3.267-3.317l14.958-34.27h49.385l18.454,33.319c0.607,1.095,1.517,1.992,2.622,2.583l24.402,13.046
		l5.401,28.251h-5.957C306.17,341.673,303.518,343.824,302.883,346.829z M138.517,359.673l3.38-16h35.206l3.38,16H138.517z
		 M313.456,359.673l1.056-5h17.854l1.056,5H313.456z"/>
	<path d="M225.6,212.673h40c3.59,0,6.5-2.91,6.5-6.5s-2.91-6.5-6.5-6.5h-40c-3.59,0-6.5,2.91-6.5,6.5S222.01,212.673,225.6,212.673z
		"/>
	<path d="M286.5,212.673h9c3.59,0,6.5-2.91,6.5-6.5s-2.91-6.5-6.5-6.5h-9c-3.59,0-6.5,2.91-6.5,6.5S282.91,212.673,286.5,212.673z"
		/>
</g>
<g>
</g>
<g>
</g>
<g>
</g>
<g>
</g>
<g>
</g>
<g>
</g>
<g>
</g>
<g>
</g>
<g>
</g>
<g>
</g>
<g>
</g>
<g>
</g>
<g>
</g>
<g>
</g>
<g>
</g>
</svg>
