<?xml version="1.0" encoding="iso-8859-1"?>
<!-- Generator: Adobe Illustrator 19.0.0, SVG Export Plug-In . SVG Version: 6.00 Build 0)  -->
<svg version="1.1" id="Capa_1" xmlns="http://www.w3.org/2000/svg" xmlns:xlink="http://www.w3.org/1999/xlink" x="0px" y="0px"
	 viewBox="0 0 463 463" style="enable-background:new 0 0 463 463;" xml:space="preserve">
<g>
	<path d="M396.566,422.517l-47.578-321.151c-4.173-28.167-18.344-53.922-39.902-72.521C287.527,10.243,259.973,0,231.5,0
		s-56.027,10.243-77.585,28.844c-21.558,18.6-35.729,44.354-39.902,72.521L66.434,422.521c-1.717,11.591,5.375,22.543,16.862,26.042
		c4.17,1.271,7.334,3.169,10.997,5.368c7.082,4.251,15.108,9.069,30.513,9.069c15.408,0,23.437-4.818,30.52-9.069
		c6.197-3.719,11.548-6.931,22.8-6.931c11.244,0,16.592,3.211,22.784,6.93c7.08,4.252,15.104,9.07,30.506,9.07
		c15.412,0,23.442-4.818,30.527-9.068c6.199-3.72,11.553-6.932,22.81-6.932c11.268,0,16.626,3.213,22.831,6.933
		c7.089,4.25,15.124,9.067,30.543,9.067c15.42,0,23.455-4.817,30.544-9.067c3.671-2.2,6.841-4.102,11.022-5.372
		C391.188,445.067,398.284,434.114,396.566,422.517z M375.331,434.209c-5.949,1.808-10.425,4.491-14.374,6.858
		c-6.205,3.72-11.563,6.933-22.831,6.933c-11.267,0-16.625-3.213-22.83-6.933c-7.089-4.25-15.124-9.067-30.543-9.067
		c-15.412,0-23.442,4.818-30.527,9.068c-6.199,3.72-11.553,6.932-22.81,6.932c-11.244,0-16.592-3.211-22.785-6.93
		c-7.08-4.252-15.104-9.07-30.506-9.07c-15.408,0-23.436,4.818-30.519,9.069c-6.197,3.719-11.548,6.931-22.801,6.931
		c-11.248,0-16.598-3.212-22.792-6.931c-3.941-2.366-8.409-5.048-14.346-6.856c-4.325-1.317-7.015-5.31-6.395-9.494l47.579-321.155
		c3.646-24.609,16.027-47.112,34.863-63.362C182.549,23.95,206.623,15,231.5,15c24.877,0,48.951,8.95,67.787,25.201
		s31.217,38.753,34.863,63.362l47.578,321.151v-0.001C382.348,428.901,379.658,432.894,375.331,434.209z"/>
	<path d="M199.5,104c-12.958,0-23.5,10.542-23.5,23.5v32c0,12.958,10.542,23.5,23.5,23.5s23.5-10.542,23.5-23.5v-32
		C223,114.542,212.458,104,199.5,104z M208,159.5c0,4.687-3.813,8.5-8.5,8.5s-8.5-3.813-8.5-8.5v-32c0-4.687,3.813-8.5,8.5-8.5
		s8.5,3.813,8.5,8.5V159.5z"/>
	<path d="M263.5,104c-12.958,0-23.5,10.542-23.5,23.5v32c0,12.958,10.542,23.5,23.5,23.5s23.5-10.542,23.5-23.5v-32
		C287,114.542,276.458,104,263.5,104z M272,159.5c0,4.687-3.813,8.5-8.5,8.5s-8.5-3.813-8.5-8.5v-32c0-4.687,3.813-8.5,8.5-8.5
		s8.5,3.813,8.5,8.5V159.5z"/>
	<path d="M122.727,312.078c-4.098-0.619-7.912,2.222-8.518,6.319l-14.286,96.428c-0.607,4.097,2.222,7.911,6.32,8.518
		c0.373,0.056,0.743,0.082,1.108,0.082c3.656,0,6.858-2.677,7.41-6.401l14.286-96.428
		C129.654,316.499,126.825,312.685,122.727,312.078z"/>
	<path d="M253.214,50.42c5.025,1.621,9.897,3.814,14.481,6.519c1.196,0.705,2.508,1.041,3.804,1.041c2.567,0,5.068-1.319,6.467-3.69
		c2.104-3.567,0.918-8.166-2.649-10.271c-5.534-3.265-11.421-5.914-17.496-7.874c-3.942-1.271-8.168,0.894-9.441,4.835
		C247.107,44.921,249.272,49.148,253.214,50.42z"/>
	<path d="M129.838,264.075c-4.1-0.616-7.911,2.222-8.518,6.32l-2.371,16.005c-0.607,4.097,2.222,7.911,6.32,8.518
		c0.373,0.056,0.743,0.082,1.108,0.082c3.656,0,6.858-2.677,7.41-6.402l2.371-16.005
		C136.765,268.496,133.936,264.682,129.838,264.075z"/>
	<path d="M317.333,106.054c-2.083-14.057-7.721-27.545-16.304-39.004c-2.483-3.315-7.184-3.989-10.5-1.507
		c-3.315,2.483-3.989,7.184-1.506,10.499c7.095,9.472,11.753,20.61,13.472,32.21l10.125,68.35c0.552,3.726,3.753,6.402,7.41,6.402
		c0.365,0,0.736-0.026,1.108-0.082c4.097-0.606,6.927-4.421,6.32-8.518L317.333,106.054z"/>
</g>
<g>
</g>
<g>
</g>
<g>
</g>
<g>
</g>
<g>
</g>
<g>
</g>
<g>
</g>
<g>
</g>
<g>
</g>
<g>
</g>
<g>
</g>
<g>
</g>
<g>
</g>
<g>
</g>
<g>
</g>
</svg>
