<?xml version="1.0" encoding="iso-8859-1"?>
<!-- Generator: Adobe Illustrator 19.0.0, SVG Export Plug-In . SVG Version: 6.00 Build 0)  -->
<svg version="1.1" id="Layer_1" xmlns="http://www.w3.org/2000/svg" xmlns:xlink="http://www.w3.org/1999/xlink" x="0px" y="0px"
	 viewBox="0 0 512 512" style="enable-background:new 0 0 512 512;" xml:space="preserve">
<g>
	<g>
		<g>
			<path d="M400.013,397.457c-8.31-4.415-17.419-8.471-27.173-12.137h40.052l-31.67-226.969h49.171l21.773-58.062h-83.54
				c-1.466-9.803-5.362-27.869-15.453-46.066C339.457,29.486,311.463,0,256,0c-55.463,0-83.457,29.486-97.173,54.222
				c-10.091,18.198-13.987,36.263-15.453,46.066h-83.54l21.773,58.062h49.171L99.107,385.32h40.198
				c-12.982,4.938-24.79,10.585-35.237,16.858c-55.242,33.162-56.534,73.675-56.562,75.383L47.505,512h416.99v-34.352
				C464.484,475.768,463.517,431.223,400.013,397.457z M394.695,369.485h-54.898c-10.478-6.401-18.497-12.109-23.096-16.427v-25.65
				c30.727-17.567,52.146-48.501,60.056-86.476L394.695,369.485z M193.359,198.745c36.888-8.056,65.5-21.084,85.166-38.754
				l85.681,42.84v5.664c0,6.953-0.436,13.579-1.297,19.714c-5.445,39.426-26.499,71.309-57.78,87.488
				c-14.74,7.672-31.269,11.562-49.129,11.562c-17.86,0-34.388-3.89-49.147-11.572c-31.263-16.168-52.317-48.052-57.765-87.495
				c-0.858-6.115-1.295-12.742-1.295-19.696v-3.08C157.089,204.725,173.898,202.995,193.359,198.745z M147.794,189.511v-31.16
				h106.784C218.546,181.666,167.455,187.922,147.794,189.511z M310.653,158.351h53.553v26.777L310.653,158.351z M163.209,84.454
				h150.853V68.619h-144.8c1.112-2.383,2.328-4.784,3.674-7.182C189.915,31.178,217.863,15.835,256,15.835
				s66.085,15.343,83.065,45.602c8.312,14.812,11.951,29.843,13.502,38.852H159.433C160.154,96.101,161.324,90.619,163.209,84.454z
				 M92.579,142.515l-9.897-26.392h346.635l-9.897,26.392H92.579z M117.305,369.485l17.938-128.554
				c7.917,37.989,29.338,68.923,60.056,86.478v25.649c-4.6,4.32-12.62,10.029-23.096,16.427H117.305z M248.082,496.165H63.34
				v-18.373c0.022-0.528,0.457-8.189,5.977-19.179c5.396-10.74,16.7-26.409,40.036-41.092l138.729,34.682V496.165z M130.073,406.377
				c8.652-4.001,18.017-7.648,28.064-10.883l0.64-0.206l0.595-0.31c0.337-0.175,7.87-4.113,17.227-9.659h0.225v-0.133
				c0.553-0.328,1.112-0.661,1.676-1c14.933-8.99,25.235-16.6,30.618-22.619l2.015-2.254v-24.351
				c13.916,5.392,28.951,8.131,44.866,8.131c15.918,0,30.956-2.739,44.866-8.13v24.349l2.015,2.254
				c5.383,6.018,15.683,13.629,30.625,22.623c0.563,0.338,1.118,0.668,1.669,0.995v0.135h0.225
				c9.353,5.544,16.891,9.484,17.226,9.659l0.612,0.319l0.658,0.208c7.041,2.232,13.768,4.666,20.143,7.282l-118.217,35.027
				L130.073,406.377z M448.66,496.165H263.918v-44.233L395.4,412.973c51.468,28.545,53.205,62.873,53.26,64.795V496.165z"/>
			<polygon points="277.113,242.804 263.918,242.804 263.918,208.495 248.082,208.495 248.082,258.639 277.113,258.639 			"/>
		</g>
	</g>
</g>
<g>
</g>
<g>
</g>
<g>
</g>
<g>
</g>
<g>
</g>
<g>
</g>
<g>
</g>
<g>
</g>
<g>
</g>
<g>
</g>
<g>
</g>
<g>
</g>
<g>
</g>
<g>
</g>
<g>
</g>
</svg>
