<?xml version="1.0" encoding="iso-8859-1"?>
<!-- Generator: Adobe Illustrator 19.0.0, SVG Export Plug-In . SVG Version: 6.00 Build 0)  -->
<svg version="1.1" id="Capa_1" xmlns="http://www.w3.org/2000/svg" xmlns:xlink="http://www.w3.org/1999/xlink" x="0px" y="0px"
	 viewBox="0 0 470.001 470.001" style="enable-background:new 0 0 470.001 470.001;" xml:space="preserve">
<g>
	<path d="M469.174,368.714l-23.858-46.514h0.299c2.613,0,5.038-1.36,6.4-3.59s1.466-5.008,0.272-7.333l-23.857-46.514h0.299
		c2.613,0,5.038-1.36,6.4-3.59s1.466-5.008,0.272-7.333l-27.652-53.91c-1.283-2.503-3.859-4.077-6.673-4.077
		c-2.813,0-5.39,1.574-6.673,4.077l-27.653,53.91c-1.193,2.325-1.09,5.104,0.272,7.333s3.787,3.59,6.4,3.59h0.299l-23.857,46.514
		c-1.193,2.325-1.09,5.104,0.272,7.333s3.787,3.59,6.4,3.59h0.299l-8.16,15.909l-37.549-73.206c0,0,12.843,0,12.862,0
		c4.143,0,7.5-3.357,7.5-7.5c0-1.424-0.396-2.754-1.085-3.888l-53.009-103.347c0,0,12.843,0,12.862,0c4.143,0,7.5-3.357,7.5-7.5
		c0-1.424-0.396-2.755-1.085-3.889l-55-107.225c-1.283-2.503-3.86-4.077-6.673-4.077c-2.813,0-5.39,1.574-6.673,4.077
		l-55.238,107.69c-1.193,2.325-1.09,5.104,0.272,7.333s3.787,3.59,6.4,3.59h12.843l-53.246,103.812
		c-1.193,2.325-1.09,5.104,0.272,7.333s3.787,3.59,6.4,3.59h12.842l-37.549,73.205l-8.159-15.908h0.299c2.613,0,5.038-1.36,6.4-3.59
		s1.466-5.008,0.272-7.333L96.28,264.764h0.298c2.613,0,5.038-1.36,6.4-3.59s1.466-5.008,0.272-7.333l-27.652-53.91
		c-1.283-2.503-3.859-4.077-6.673-4.077s-5.39,1.574-6.673,4.077L34.6,253.841c-1.193,2.325-1.09,5.104,0.272,7.333
		s3.787,3.59,6.4,3.59h0.299l-23.858,46.514c-1.192,2.325-1.089,5.104,0.273,7.333s3.787,3.59,6.4,3.59h0.298L0.827,368.714
		c-1.192,2.325-1.089,5.104,0.273,7.333s3.787,3.59,6.4,3.59h53.925v23.98c0,4.143,3.357,7.5,7.5,7.5s7.5-3.357,7.5-7.5v-23.98
		H112.3h115.2v55.385c0,4.143,3.357,7.5,7.5,7.5s7.5-3.357,7.5-7.5v-55.385h115.2c0.001,0,35.876,0,35.876,0v23.98
		c0,4.143,3.357,7.5,7.5,7.5s7.5-3.357,7.5-7.5v-23.98H462.5c2.613,0,5.038-1.36,6.4-3.59S470.367,371.039,469.174,368.714z
		 M362.283,364.637l-5.178-10.096l18.681-36.418c1.193-2.325,1.09-5.104-0.272-7.333s-3.787-3.59-6.4-3.59h-0.299l23.858-46.514
		c1.192-2.325,1.089-5.104-0.273-7.333s-3.787-3.59-6.4-3.59H385.7l15.377-29.978l15.376,29.978h-0.299
		c-2.613,0-5.038,1.36-6.4,3.59s-1.466,5.008-0.272,7.333l23.857,46.514h-0.298c-2.613,0-5.038,1.36-6.4,3.59
		s-1.466,5.008-0.273,7.333l23.858,46.514H362.283z M43.634,318.123c1.193-2.325,1.09-5.104-0.272-7.333s-3.787-3.59-6.4-3.59
		h-0.298l23.857-46.514c1.193-2.325,1.09-5.104-0.272-7.333s-3.787-3.59-6.4-3.59h-0.299l15.376-29.978l15.376,29.978h-0.298
		c-2.613,0-5.038,1.36-6.4,3.59s-1.466,5.008-0.272,7.333l23.857,46.514h-0.299c-2.613,0-5.038,1.36-6.4,3.59
		s-1.466,5.008-0.273,7.333l18.68,36.419l-5.178,10.095H19.777L43.634,318.123z M177.823,260.827
		c1.193-2.325,1.09-5.104-0.272-7.333s-3.787-3.59-6.4-3.59h-12.842l53.247-103.812c1.192-2.325,1.089-5.104-0.273-7.333
		s-3.787-3.59-6.4-3.59h-12.843L235,51.411l42.962,83.758h-12.843c-2.613,0-5.038,1.36-6.4,3.59s-1.466,5.008-0.273,7.333
		l53.248,103.812h-12.843c-2.613,0-5.038,1.36-6.4,3.59s-1.466,5.008-0.273,7.333l53.248,103.811H124.576L177.823,260.827z"/>
	<path d="M242.5,122.575v-9.711c0-4.143-3.357-7.5-7.5-7.5s-7.5,3.357-7.5,7.5v9.711c0,4.143,3.357,7.5,7.5,7.5
		S242.5,126.717,242.5,122.575z"/>
	<path d="M219.298,256.194c-4.143,0-7.5,3.357-7.5,7.5v9.711c0,4.143,3.357,7.5,7.5,7.5s7.5-3.357,7.5-7.5v-9.711
		C226.798,259.551,223.441,256.194,219.298,256.194z"/>
	<path d="M259.298,314.672c4.143,0,7.5-3.357,7.5-7.5v-9.711c0-4.143-3.357-7.5-7.5-7.5s-7.5,3.357-7.5,7.5v9.711
		C251.798,311.315,255.156,314.672,259.298,314.672z"/>
</g>
<g>
</g>
<g>
</g>
<g>
</g>
<g>
</g>
<g>
</g>
<g>
</g>
<g>
</g>
<g>
</g>
<g>
</g>
<g>
</g>
<g>
</g>
<g>
</g>
<g>
</g>
<g>
</g>
<g>
</g>
</svg>
