<?xml version="1.0" encoding="iso-8859-1"?>
<!-- Generator: Adobe Illustrator 16.0.0, SVG Export Plug-In . SVG Version: 6.00 Build 0)  -->
<!DOCTYPE svg PUBLIC "-//W3C//DTD SVG 1.1//EN" "http://www.w3.org/Graphics/SVG/1.1/DTD/svg11.dtd">
<svg version="1.1" id="Capa_1" xmlns="http://www.w3.org/2000/svg" xmlns:xlink="http://www.w3.org/1999/xlink" x="0px" y="0px"
	 width="475.312px" height="475.312px" viewBox="0 0 475.312 475.312" style="enable-background:new 0 0 475.312 475.312;"
	 xml:space="preserve">
<g>
	<g>
		<path d="M177.994,391.652c0-2.976-2.402-5.375-5.375-5.375h-89.92c-2.976,0-5.375,2.399-5.375,5.375
			c0,2.961,2.399,5.376,5.375,5.376h89.925C175.587,397.028,177.994,394.613,177.994,391.652z"/>
		<path d="M172.064,404.497c0,2.966,2.399,5.376,5.375,5.376h52.985c2.979,0,5.375-2.41,5.375-5.376s-2.391-5.374-5.375-5.374
			H177.44C174.464,399.123,172.064,401.521,172.064,404.497z"/>
		<path d="M243.277,397.028h61.824c2.976,0,5.374-2.415,5.374-5.376c0-2.976-2.398-5.375-5.374-5.375h-61.824
			c-2.971,0-5.375,2.399-5.375,5.375C237.903,394.613,240.307,397.028,243.277,397.028z"/>
		<path d="M305.102,420H194.7c-2.976,0-5.375,2.408-5.375,5.376c0,2.971,2.399,5.375,5.375,5.375h110.401
			c2.976,0,5.374-2.404,5.374-5.375C310.476,422.408,308.077,420,305.102,420z"/>
		<path d="M287.037,435.652h-37.133c-2.973,0-5.376,2.404-5.376,5.376c0,2.966,2.403,5.375,5.376,5.375h37.133
			c2.977,0,5.376-2.409,5.376-5.375C292.413,438.057,290.009,435.652,287.037,435.652z"/>
		<path d="M351.27,403.139h-39.34c-2.972,0-5.376,2.404-5.376,5.376c0,2.965,2.404,5.375,5.376,5.375h39.34
			c2.971,0,5.376-2.41,5.376-5.375C356.646,405.543,354.24,403.139,351.27,403.139z"/>
		<path d="M207.141,432.84h-37.735c-2.975,0-5.375,2.409-5.375,5.375c0,2.977,2.401,5.376,5.375,5.376h37.74
			c2.977,0,5.375-2.399,5.375-5.376C212.521,435.249,210.118,432.84,207.141,432.84z"/>
		<path d="M156.165,415.181h-18.964c1.333-0.987,2.252-2.478,2.252-4.262c0-2.973-2.402-5.376-5.375-5.376h-17.26
			c-2.974,0-5.375,2.403-5.375,5.376c0,2.976,2.402,5.374,5.375,5.374h3.703c-1.333,0.986-2.257,2.479-2.257,4.263
			c0,2.961,2.401,5.376,5.375,5.376h32.525c2.974,0,5.375-2.415,5.375-5.376C161.54,417.585,159.138,415.181,156.165,415.181z"/>
		<path d="M398.23,374.225h-75.869c-2.977,0-5.376,2.415-5.376,5.376c0,2.971,2.399,5.375,5.376,5.375h75.869
			c2.976,0,5.375-2.404,5.375-5.375C403.605,376.64,401.206,374.225,398.23,374.225z"/>
		<path d="M146.926,382.172h50.184c2.971,0,5.375-2.403,5.375-5.374c0-2.968-2.404-5.376-5.375-5.376h-50.184
			c-2.975,0-5.375,2.408-5.375,5.376C141.55,379.769,143.957,382.172,146.926,382.172z"/>
		<path d="M475.135,230.608C471.386,102.819,366.335,0.005,237.656,0.005C109.158,0.005,4.22,102.534,0.194,230.071
			c-0.113,0.588-0.126,1.157-0.044,1.743C0.107,233.758,0,235.692,0,237.655c0,131.043,106.61,237.652,237.656,237.652
			c82.62,0,155.504-42.405,198.097-106.568c0.551-0.535,0.972-1.196,1.244-1.927c24.195-37.219,38.315-81.556,38.315-129.146
			c0-2.118-0.104-4.186-0.157-6.283C475.166,231.115,475.155,230.866,475.135,230.608z M408.319,307.001l-90.09-115.083
			l59.417-24.798l58.459,92.552L408.319,307.001z M304.276,205.265v105.894h-82.896L304.276,205.265z M315.027,205.265
			l82.898,105.894h-82.898V205.265z M211.165,152.542c-0.869-1.914-2.787-3.145-4.89-3.145h-28.124l27.263-31.338
			c1.386-1.586,1.704-3.838,0.835-5.756c-0.872-1.914-2.791-3.145-4.893-3.145h-23.205l42.759-49.143l45.869,49.143H241.58
			c-2.139,0-4.079,1.268-4.924,3.236c-0.861,1.961-0.468,4.245,1.01,5.809l29.124,31.2h-30.478c-2.139,0-4.091,1.268-4.929,3.236
			c-0.855,1.961-0.467,4.247,1,5.812l34.401,36.848h-29.199h-30.182h-29.252l32.181-36.987
			C211.719,156.708,212.042,154.46,211.165,152.542z M232.21,206.039l0.055,38.157c-4-2.656-10.693-6.813-19.486-11.438v-26.72
			H232.21z M79.237,243.031h13.746v13.576H79.237V243.031z M98.353,232.281H73.856H52.344l24.651-28.333
			c1.389-1.585,1.711-3.837,0.84-5.756c-0.871-1.917-2.79-3.145-4.893-3.145H52.344l20.665-23.748
			c1.391-1.588,1.708-3.84,0.837-5.758c-0.872-1.914-2.791-3.145-4.89-3.145H52.338l32.5-37.345l34.856,37.345h-18.11
			c-2.14,0-4.083,1.268-4.929,3.236c-0.856,1.961-0.462,4.247,1,5.812l22.049,23.609H97.316c-2.139,0-4.082,1.267-4.929,3.234
			c-0.855,1.963-0.462,4.247,1,5.811l26.317,28.194H98.353V232.281z M10.863,233.419c12.777-10.746,32.667-12.058,36.864-12.207
			l-11.239,12.911c-1.388,1.588-1.706,3.838-0.835,5.758c0.871,1.911,2.791,3.145,4.887,3.145h27.94v18.957
			c0,2.961,2.404,5.374,5.375,5.374h24.497c2.974,0,5.375-2.413,5.375-5.374v-18.957h28.339c0.038,0,0.082,0,0.113,0
			c2.974,0,5.375-2.409,5.375-5.375c0-1.748-0.833-3.307-2.128-4.288l-13.966-14.961c45.793,0.215,87.765,23.916,102.828,33.47
			c-42.997,34.427-85.985,94.657-95.033,107.655h-82.84C23.876,324.293,10.75,282.485,10.75,237.65
			C10.75,236.226,10.837,234.834,10.863,233.419z M237.656,464.556c-75.625,0-142.679-37.224-183.934-94.273H421.59
			C380.34,427.332,313.284,464.556,237.656,464.556z M428.897,359.531h-286.51c20.604-28.865,60.129-78.453,95.188-104.357
			c0.034,0,0.055,0.016,0.086,0.016h0.005c2.355-0.005,4.289-1.532,5.024-3.633c6.993-4.745,13.758-8.453,20.084-10.71
			l-56.657,72.379c-1.268,1.618-1.499,3.812-0.601,5.659c0.903,1.864,2.78,3.03,4.832,3.03h99.303h99.314
			c0.01,0,0.036-0.006,0.052-0.006c0.468-0.005,0.925-0.069,1.376-0.189c0.172-0.052,0.341-0.13,0.499-0.199
			c0.283-0.109,0.556-0.211,0.812-0.361c0.169-0.111,0.33-0.231,0.488-0.358c0.216-0.161,0.437-0.325,0.631-0.535
			c0.151-0.158,0.283-0.351,0.414-0.54c0.11-0.153,0.262-0.288,0.353-0.462l33.453-56.961c0.122-0.221,0.143-0.468,0.242-0.699
			c0.143-0.357,0.309-0.714,0.373-1.091c0.058-0.337,0.037-0.656,0.021-0.999c0-0.346,0.016-0.691-0.062-1.044
			c-0.075-0.361-0.231-0.678-0.39-1.013c-0.104-0.252-0.121-0.515-0.283-0.746l-20.973-33.208
			c11.985,0.375,29.255,2.607,38.484,10.04c0.036,1.378,0.116,2.743,0.116,4.134C464.562,282.491,451.438,324.293,428.897,359.531z"
			/>
	</g>
</g>
<g>
</g>
<g>
</g>
<g>
</g>
<g>
</g>
<g>
</g>
<g>
</g>
<g>
</g>
<g>
</g>
<g>
</g>
<g>
</g>
<g>
</g>
<g>
</g>
<g>
</g>
<g>
</g>
<g>
</g>
</svg>
