<?xml version="1.0" encoding="iso-8859-1"?>
<!-- Generator: Adobe Illustrator 18.0.0, SVG Export Plug-In . SVG Version: 6.00 Build 0)  -->
<!DOCTYPE svg PUBLIC "-//W3C//DTD SVG 1.1//EN" "http://www.w3.org/Graphics/SVG/1.1/DTD/svg11.dtd">
<svg version="1.1" id="Capa_1" xmlns="http://www.w3.org/2000/svg" xmlns:xlink="http://www.w3.org/1999/xlink" x="0px" y="0px"
	 viewBox="0 0 431.956 431.956" style="enable-background:new 0 0 431.956 431.956;" xml:space="preserve">
<g>
	<g>
		<g>
			<g>
				<path d="M203.521,238.871c-1.653,0-3.271-0.819-4.225-2.318l-16.967-26.685c-1.481-2.33-0.793-5.42,1.537-6.902
					c2.329-1.483,5.421-0.794,6.902,1.537l16.967,26.686c1.481,2.33,0.793,5.42-1.537,6.902
					C205.368,238.619,204.438,238.871,203.521,238.871z"/>
			</g>
			<g>
				<path d="M243.738,238.991c-0.927,0-1.865-0.258-2.703-0.797c-2.321-1.496-2.991-4.59-1.495-6.911l17.125-26.585
					c1.496-2.32,4.588-2.99,6.911-1.496c2.321,1.496,2.991,4.59,1.495,6.911l-17.125,26.585
					C246.99,238.182,245.382,238.991,243.738,238.991z"/>
			</g>
			<g>
				<path d="M222.755,218.685c-0.005,0-0.01,0-0.015,0c-2.762-0.008-4.993-2.253-4.985-5.015l0.076-25.569
					c0.008-2.756,2.245-4.985,5-4.985c0.005,0,0.01,0,0.015,0c2.762,0.008,4.993,2.253,4.985,5.015l-0.076,25.569
					C227.747,216.456,225.509,218.685,222.755,218.685z"/>
			</g>
		</g>
		<path d="M391.797,354.798l-47.906-14.439l-15.836-8.745c-0.509-0.281-1.064-0.471-1.638-0.562l-46.784-7.384l0.165-55.462
			c2.696-5.242,44.586-52.086,50.25-60.864c19.734-30.585,27.249-68.405,17.109-86.102c-3.742-6.533-9.77-9.964-16.948-9.653
			c-13.847,0.593-18.439,20.142-22.129,35.85c-1.351,5.749-2.747,11.693-4.03,13.734c-2.477,3.935-8.994,6.514-13.049,7.148
			c2.219-7.207,6.658-21.688,10.631-35.009c7.11-23.855,5.72-85.501-14.766-103.853c-6.525-5.846-14.431-7.056-22.859-3.497
			c-13.246,5.592-9.618,27.409-6.11,48.508c1.313,7.889,2.551,15.34,2.833,21.322c0.478,10.187-5.724,27.047-11.997,41.07
			c0.544-25.183,1.088-64.503-0.276-82.241c-1.531-19.888-19.099-44.281-37.595-52.202c-8.698-3.724-16.729-3.126-22.621,1.682
			c-11.533,9.419-4.234,22.495,2.204,34.033c4.164,7.46,8.883,15.917,9.957,24.369c0.416,3.498-0.171,31.33-1.191,54.248
			c-3.318-14.578-8.18-29.874-16.243-37.799c-17.968-17.662-44.126-24.669-59.035-21.236c-6.641,1.528-11.28,5.133-13.064,10.15
			c-2.497,7.021-2.167,13.359,0.979,18.839c4.285,7.465,13.847,12.791,27.65,15.401c8.651,1.636,11.482,18.871,16.57,54.576
			c1.476,10.354,0.462,17.629-3.014,21.622c-2.691,3.094-7.086,4.593-13.529,4.569c-9.378-0.028-15.573-0.046-16.582-27.21
			c-0.542-14.599-4.254-24.84-11.033-30.441c-5.438-4.492-10.982-4.418-12.724-4.262c-5.229,0.043-9.853,2.036-13.386,5.776
			c-9.46,10.014-8.675,29.622-8.512,32.395c0.729,44.446,7.324,53.608,16.561,61.69c3.983,3.486,7.423,6.496,9.716,18.362
			c6.907,35.751,39.461,48.324,51.008,51.701l-0.106,35.933l-39.134,8.808l-39.495,0.951c-1.808,0.043-3.45,1.059-4.298,2.656
			c-0.847,1.597-0.765,3.527,0.213,5.047l7.946,12.351l-40.256,19.31c-1.874,0.899-2.996,2.862-2.82,4.932
			c0.177,2.07,1.614,3.815,3.612,4.385l35.187,10.025l10.022,21.161c0.777,1.642,2.384,2.732,4.195,2.85l85.313,5.521
			c1.098,0.072,2.172-0.217,3.082-0.819l25.64-16.96l67.306,24.622c0.554,0.203,1.136,0.304,1.718,0.304
			c0.466,0,0.932-0.065,1.385-0.196l92.255-26.589c1.747-0.503,3.083-1.915,3.489-3.688c0.405-1.772-0.183-3.625-1.536-4.839
			l-18.086-16.217l41.95-16.177c1.993-0.769,3.278-2.718,3.197-4.853C395.269,357.263,393.841,355.415,391.797,354.798z
			 M113.382,237.28c-2.943-15.234-8.259-19.886-12.949-23.99c-6.118-5.355-12.445-10.891-13.149-54.439
			c-0.001-0.078-0.004-0.155-0.009-0.233c-0.289-4.594,0.155-19.053,5.794-25.021c1.703-1.803,3.378-2.644,6.284-2.644
			c2.906,0,3.497-0.249,6.187,1.972c3.083,2.547,6.872,8.623,7.409,23.103c1.021,27.488,7.72,36.783,26.546,36.839
			c9.369,0.035,16.456-2.666,21.103-8.004c5.544-6.371,7.3-16.052,5.37-29.598c-5.689-39.917-8.546-59.952-24.613-62.991
			c-10.689-2.021-18.089-5.769-20.835-10.553c-1.648-2.871-1.724-6.309-0.229-10.51c0.81-2.275,4.034-3.33,5.886-3.755
			c12.014-2.765,34.467,3.568,49.782,18.623c9.424,9.262,14.228,35.333,17.098,50.911c1.05,5.697,1.879,10.198,2.729,13.061
			c1.249,4.216,4.592,4.71,6.371,4.335c4.464-0.938,4.981-4.984,5.941-17.632c0.691-9.09,1.2-20.734,1.507-28.901
			c0.717-19.081,1.188-42.916,0.72-46.61c-1.319-10.377-6.54-19.732-11.146-27.985c-7.361-13.189-8.958-17.864-4.611-21.414
			c2.947-2.405,7.104-2.485,12.359-0.234c13.48,5.773,30.204,26.153,31.561,43.777c2.006,26.07-0.3,103.099-0.323,103.874
			c-0.069,2.307,1.448,4.362,3.674,4.973c2.227,0.613,4.579-0.38,5.698-2.399c0.99-1.788,24.238-44.044,23.184-66.514
			c-0.309-6.571-1.595-14.305-2.956-22.493c-2.326-13.99-5.842-35.133,0.134-37.655c4.806-2.029,8.713-1.479,12.299,1.733
			c15.555,13.935,18.848,70.087,11.854,93.547c-5.524,18.529-11.959,39.316-12.023,39.524c-0.261,0.844-0.294,1.742-0.096,2.603
			c0.326,1.412,1.633,4.789,6.72,5.65c6.646,1.126,20.356-2.981,25.865-11.733c2.173-3.455,3.554-9.332,5.302-16.772
			c2.449-10.427,6.549-27.877,12.821-28.146c3.449-0.151,5.947,1.324,7.844,4.634c7.272,12.691,2.242,46.142-16.835,75.708
			c-5.238,8.12-49.089,57.389-51.481,63.321c-0.238,0.59-0.361,1.22-0.363,1.856v96.876l-44.048,2.018
			c-0.16,0.007-53.264,7.6-53.264,7.6l-8.151-3.863v-82.703c0.007-2.381-1.422-4.438-3.755-4.914
			C160.181,282.028,120.381,273.503,113.382,237.28z M279.538,355.708l13.661,7.173l-13.685,0.631L279.538,355.708z
			 M154.351,364.994l-10.915-5.173l10.94-3.342L154.351,364.994z M338.986,374.035c-1.624,0.626-2.805,2.051-3.119,3.763
			c-0.314,1.711,0.284,3.463,1.58,4.625l17.443,15.64l-82.011,23.636l-68.144-24.928c-1.49-0.544-3.151-0.351-4.477,0.525
			l-26.342,17.425l-80.698-5.222l-9.732-20.55c-0.616-1.301-1.764-2.274-3.148-2.668l-24.683-7.032l33.473-16.057
			c1.294-0.621,2.258-1.766,2.649-3.146c0.391-1.38,0.17-2.861-0.606-4.068l-6.192-9.625l31.087-0.749
			c0.329-0.008,0.656-0.048,0.978-0.121l37.391-8.416l-0.026,8.945l-26.239,8.015c-1.975,0.603-3.375,2.358-3.525,4.417
			c-0.151,2.059,0.979,3.999,2.845,4.883l42.078,19.942c1.208,0.695,2.614,0.465,2.85,0.432l54.037-7.734l85.628-3.948
			c2.255-0.104,4.16-1.706,4.65-3.91c0.49-2.204-0.558-4.462-2.557-5.512l-34.603-18.168l0.031-10.644l44.387,7.006l15.531,8.577
			c0.31,0.171,0.636,0.309,0.974,0.41l34.457,10.386L338.986,374.035z"/>
	</g>
</g>
<g>
</g>
<g>
</g>
<g>
</g>
<g>
</g>
<g>
</g>
<g>
</g>
<g>
</g>
<g>
</g>
<g>
</g>
<g>
</g>
<g>
</g>
<g>
</g>
<g>
</g>
<g>
</g>
<g>
</g>
</svg>
