<?xml version="1.0" encoding="iso-8859-1"?>
<!-- Generator: Adobe Illustrator 18.0.0, SVG Export Plug-In . SVG Version: 6.00 Build 0)  -->
<!DOCTYPE svg PUBLIC "-//W3C//DTD SVG 1.1//EN" "http://www.w3.org/Graphics/SVG/1.1/DTD/svg11.dtd">
<svg version="1.1" id="Capa_1" xmlns="http://www.w3.org/2000/svg" xmlns:xlink="http://www.w3.org/1999/xlink" x="0px" y="0px"
	 viewBox="0 0 436.027 436.027" style="enable-background:new 0 0 436.027 436.027;" xml:space="preserve">
<g>
	<g>
		<g>
			<g>
				<path d="M213.879,236.662c-2.762,0-5-2.239-5-5v-71.024c0-2.761,2.238-5,5-5c2.762,0,5,2.239,5,5v71.024
					C218.879,234.423,216.641,236.662,213.879,236.662z"/>
			</g>
			<g>
				<path d="M260.703,236.662c-2.762,0-5-2.239-5-5v-22.313c0-0.021,0-0.041,0-0.061v-48.649c0-2.761,2.238-5,5-5h8.342
					c16.076,0,29.154,13.078,29.154,29.153c0,16.036-13.014,29.226-29.036,29.289l-3.46,0.02v17.561
					C265.703,234.423,263.465,236.662,260.703,236.662z M265.703,165.638v38.452c0,0,3.267-0.015,3.342-0.015
					c10.562,0,19.154-8.723,19.154-19.284c0-10.561-8.593-19.153-19.154-19.153H265.703z"/>
			</g>
			<path d="M165.586,210.115c8.793-5.025,14.736-14.491,14.736-25.324c0-16.195-13.077-29.153-29.15-29.153h-8.344
				c-2.762,0-5,2.239-5,5v71.024c0,2.761,2.238,5,5,5c2.762,0,5-2.239,5-5V214.1l3.463-0.157c1.66-0.006,3.286-0.16,4.871-0.435
				l8.619,20.123c0.812,1.896,2.658,3.033,4.598,3.033c0.657,0,1.325-0.13,1.967-0.405c2.538-1.087,3.715-4.026,2.627-6.565
				L165.586,210.115z M151.172,204.092c-0.075,0-3.344-0.002-3.344-0.002v-38.452h3.344c10.559,0,19.15,8.592,19.15,19.153
				C170.322,195.352,161.731,204.092,151.172,204.092z"/>
			<g>
				<g>
					<path d="M184.352,236.664c-1.32,0-2.61-0.54-3.54-1.47c-0.93-0.92-1.46-2.21-1.46-3.53c0-1.32,0.53-2.61,1.46-3.54
						c0.93-0.93,2.22-1.46,3.54-1.46c1.31,0,2.6,0.53,3.53,1.46c0.93,0.93,1.47,2.22,1.47,3.54c0,1.31-0.54,2.6-1.47,3.53
						C186.951,236.124,185.661,236.664,184.352,236.664z"/>
				</g>
				<g>
					<path d="M229.682,236.664c-1.32,0-2.61-0.54-3.54-1.47c-0.93-0.93-1.46-2.22-1.46-3.53c0-1.32,0.53-2.61,1.46-3.54
						c0.93-0.93,2.22-1.46,3.54-1.46c1.31,0,2.6,0.53,3.53,1.46c0.93,0.93,1.47,2.22,1.47,3.54c0,1.31-0.54,2.6-1.47,3.53
						C232.281,236.124,230.991,236.664,229.682,236.664z"/>
				</g>
				<g>
					<path d="M275.012,236.664c-1.32,0-2.601-0.54-3.54-1.47c-0.93-0.93-1.46-2.21-1.46-3.53c0-1.32,0.53-2.61,1.46-3.54
						c0.939-0.93,2.229-1.46,3.54-1.46c1.31,0,2.6,0.53,3.53,1.46c0.939,0.93,1.47,2.22,1.47,3.54c0,1.31-0.53,2.6-1.47,3.53
						C277.611,236.124,276.321,236.664,275.012,236.664z"/>
				</g>
			</g>
		</g>
		<path d="M416.242,396.008c-7.767-3.298-17.828-6.348-30.018-9.111c5.568-16.329,32.901-21.021,33.194-21.069
			c2.203-0.356,3.904-2.13,4.167-4.346c0.264-2.216-0.974-4.339-3.032-5.201c-24.542-10.283-48.867-7.254-59.377-5.133
			c-0.322-5.05,0.156-12.962,1.022-19.423c0.203-1.523-0.305-3.056-1.378-4.156c-1.072-1.1-2.585-1.646-4.12-1.479
			c-2.308,0.251-4.508,0.709-6.607,1.331v-44.884c0-2.049-1.251-3.892-3.156-4.647l-15.19-6.028l17.078-19.144
			c0.817-0.916,1.268-2.101,1.268-3.329V110.87c0-25.796-13.966-49.932-39.323-67.96c-24.842-17.661-57.784-27.387-92.759-27.387
			c-34.973,0-67.914,9.726-92.755,27.387c-25.359,18.029-39.325,42.164-39.325,67.96v33.818c0,2.023,1.219,3.846,3.087,4.62
			l11.497,4.76l-12.503,8.991c-1.307,0.939-2.081,2.45-2.081,4.06v162.252c-1.005-0.622-1.992-1.201-2.953-1.728
			c-13.882-7.622-25.756-7.718-26.315-7.718h-0.004c-1.972,0.002-3.759,1.163-4.562,2.964c-0.804,1.801-0.473,3.906,0.844,5.374
			c9.611,10.72,8.2,23.938,6.173,31.596c-23.18-16.762-48.478-5.933-49.629-5.423c-2.06,0.909-3.258,3.081-2.928,5.307
			c0.33,2.227,2.107,3.958,4.341,4.23c16.659,2.031,25.444,17.363,28.939,25.372c-7.811,2.086-14.514,4.313-20.053,6.664
			C6.472,401.663,0,408.04,0,415.504c0,1.326,0.526,2.598,1.465,3.536c0.937,0.938,2.209,1.464,3.535,1.464h426.027
			c1.326,0,2.598-0.527,3.535-1.464c0.939-0.938,1.465-2.21,1.465-3.536C436.027,408.04,429.556,401.663,416.242,396.008z
			 M352.61,359.102c0.967,2.38,3.587,3.64,6.05,2.912c0.24-0.07,19.9-5.698,42.669-1.166c-9.956,4.172-21.376,11.533-24.969,23.966
			c-2.223-0.438-4.499-0.867-6.839-1.287c-20.505-3.683-44.418-6.527-70.446-8.439c1.163-5.779,3.888-13.927,10.28-21.168
			c1.635,4.454,4.182,9.791,7.889,13.609c1.186,1.222,2.912,1.756,4.586,1.414c1.67-0.339,3.053-1.51,3.668-3.099
			c0.096-0.246,8.771-22.175,26.024-28.363C350.939,344.372,350.591,354.135,352.61,359.102z M95.932,169.681l17.714-12.738
			c1.473-1.06,2.257-2.833,2.048-4.636c-0.209-1.802-1.378-3.35-3.054-4.043l-16.708-6.917V110.87
			c0-28.208,19.68-53.259,49.94-68.807c1.179,6.92,4.208,17.11,12.04,24.182c3.695,3.338,9.818,5.435,16.853,6.712l-4.442,5.437
			l-23.439,3.67c-2.729,0.427-4.594,2.985-4.166,5.713c0.386,2.466,2.513,4.227,4.934,4.227c0.257,0,0.518-0.02,0.779-0.061
			l12.409-1.943l-3.09,3.781c-1.747,2.138-1.43,5.288,0.708,7.036c0.929,0.759,2.049,1.128,3.161,1.128
			c1.449,0,2.887-0.627,3.875-1.836l21.041-25.751c15.409,1.064,31.256-0.339,34.781-0.688c4.443,2.237,18.8,19.172,29.837,34.129
			c0.98,1.329,2.494,2.032,4.027,2.031c1.031,0,2.071-0.317,2.965-0.977c2.222-1.64,2.694-4.77,1.055-6.992
			c-0.201-0.272-3.68-4.978-8.422-10.971l14.413,1.098c0.13,0.01,0.258,0.015,0.385,0.015c2.59,0,4.781-1.996,4.98-4.62
			c0.21-2.753-1.853-5.156-4.605-5.365L242,80.195c-13.574-15.852-17.739-16.902-21.07-16.536
			c-10.803,1.202-30.557,1.73-43.953-0.477l31.144-14.01c2.518-1.133,3.641-4.093,2.508-6.611c-1.132-2.518-4.091-3.64-6.611-2.509
			l-40.146,18.06c-6.143-6.132-7.979-15.569-8.525-20.46c18.33-7.697,39.77-12.13,62.666-12.13
			c67.316,0,122.082,38.287,122.082,85.347v136.612l-20.571,23.059c-1.087,1.218-1.51,2.891-1.134,4.479
			c0.375,1.589,1.503,2.895,3.021,3.497l18.684,7.414v46.065c-9.563,6.028-16.098,15.272-19.892,21.967
			c-1.859-4.029-3.032-8.297-3.44-10.256c-0.35-1.695-1.551-3.09-3.176-3.686c-1.628-0.597-3.446-0.309-4.806,0.759
			c-13.559,10.626-18.179,24.851-19.749,33.623c-22.527-1.42-46.458-2.161-71.017-2.161c-34.618,0-67.992,1.471-97.935,4.245
			c-6.017-18.943-15.144-31.402-24.147-39.568V169.681z M29.628,360.595c8.457-0.049,18.924,2.296,28.351,11.316
			c1.159,1.108,2.778,1.591,4.354,1.306c1.577-0.288,2.921-1.314,3.612-2.761c0.459-0.958,9.46-20.258,1.078-38.763
			c12.216,3.532,32.13,14.14,42.842,45.805c-15.627,1.648-30.198,3.665-43.359,6.029c-5.99,1.076-11.592,2.209-16.809,3.394
			C47.064,380.37,40.961,368.239,29.628,360.595z M13.881,410.504c6.488-4.792,22.138-11.341,54.394-17.134
			c39.949-7.176,93.128-11.128,149.739-11.128c56.611,0,109.79,3.952,149.739,11.128c32.256,5.793,47.905,12.342,54.394,17.134
			H13.881z"/>
	</g>
</g>
<g>
</g>
<g>
</g>
<g>
</g>
<g>
</g>
<g>
</g>
<g>
</g>
<g>
</g>
<g>
</g>
<g>
</g>
<g>
</g>
<g>
</g>
<g>
</g>
<g>
</g>
<g>
</g>
<g>
</g>
</svg>
