<?xml version="1.0" encoding="iso-8859-1"?>
<!-- Generator: Adobe Illustrator 18.0.0, SVG Export Plug-In . SVG Version: 6.00 Build 0)  -->
<!DOCTYPE svg PUBLIC "-//W3C//DTD SVG 1.1//EN" "http://www.w3.org/Graphics/SVG/1.1/DTD/svg11.dtd">
<svg version="1.1" id="Capa_1" xmlns="http://www.w3.org/2000/svg" xmlns:xlink="http://www.w3.org/1999/xlink" x="0px" y="0px"
	 viewBox="0 0 439.715 439.715" style="enable-background:new 0 0 439.715 439.715;" xml:space="preserve">
<g>
	<g>
		<g>
			<path d="M190.96,143.554h-4.209c-2.761,0-5-2.239-5-5c0-2.761,2.239-5,5-5h4.209c2.761,0,5,2.239,5,5
				C195.96,141.315,193.721,143.554,190.96,143.554z"/>
		</g>
		<g>
			<path d="M252.964,143.554h-4.209c-2.762,0-5-2.239-5-5c0-2.761,2.238-5,5-5h4.209c2.762,0,5,2.239,5,5
				C257.964,141.315,255.726,143.554,252.964,143.554z"/>
		</g>
	</g>
	<g>
		<path d="M219.859,313.515c-1.32,0-2.61-0.53-3.54-1.46c-0.93-0.93-1.46-2.22-1.46-3.54c0-1.31,0.53-2.6,1.46-3.53
			c0.93-0.93,2.22-1.47,3.54-1.47c1.31,0,2.6,0.54,3.53,1.47c0.93,0.93,1.47,2.22,1.47,3.53c0,1.32-0.54,2.61-1.47,3.54
			C222.458,312.985,221.168,313.515,219.859,313.515z"/>
	</g>
	<g>
		<path d="M219.859,356.164c-1.32,0-2.61-0.53-3.54-1.46c-0.93-0.93-1.46-2.22-1.46-3.54c0-1.31,0.53-2.6,1.46-3.53
			c0.93-0.93,2.22-1.47,3.54-1.47c1.319,0,2.6,0.54,3.53,1.47c0.93,0.93,1.47,2.22,1.47,3.53c0,1.32-0.54,2.61-1.47,3.54
			C222.458,355.635,221.178,356.164,219.859,356.164z"/>
	</g>
	<g>
		<path d="M219.859,398.815c-1.32,0-2.61-0.53-3.54-1.461c-0.93-0.93-1.46-2.22-1.46-3.539c0-1.32,0.53-2.61,1.46-3.54
			c0.93-0.93,2.22-1.46,3.54-1.46c1.319,0,2.6,0.53,3.53,1.46c0.93,0.94,1.47,2.22,1.47,3.54c0,1.32-0.54,2.6-1.47,3.539
			C222.458,398.285,221.168,398.815,219.859,398.815z"/>
	</g>
	<path d="M274.573,125.437l-9.457-6.865c-1.245-0.904-2.835-1.184-4.315-0.76c0,0-35.791,10.309-35.944,10.381v-0.529
		c0-2.761-2.238-5-5-5c-2.761,0-5,2.239-5,5v0.529c-0.152-0.071-35.944-10.381-35.944-10.381c-1.479-0.424-3.07-0.144-4.315,0.76
		l-9.456,6.866c-2.235,1.623-2.731,4.749-1.108,6.983c1.623,2.235,4.749,2.73,6.983,1.108l7.484-5.434l28.978,8.307l-2.255,33.77
		c-1.448,0.304-2.752,1.222-3.461,2.649c-1.229,2.473-0.22,5.474,2.253,6.703l13.617,6.765c0.715,0.355,1.474,0.523,2.221,0.523
		c0.776,0,1.535-0.191,2.224-0.533l0.005,0.01l13.616-6.765c2.473-1.229,3.481-4.23,2.253-6.703
		c-0.708-1.427-2.012-2.345-3.459-2.649l-2.257-33.77l28.979-8.307l7.484,5.434c2.235,1.624,5.362,1.126,6.983-1.108
		C277.305,130.186,276.808,127.059,274.573,125.437z M219.857,176.227l-4.855-2.412l2.564-38.402c0.689,0.358,1.46,0.58,2.29,0.58
		c0.83,0,1.601-0.222,2.29-0.58l2.565,38.401L219.857,176.227z"/>
	<path d="M246.757,198.755H194.62c-8.411,0-15,4.99-15,11.36c0,2.761,2.239,5,5,5c2.686,0,4.877-2.118,4.995-4.775
		c0.409-0.529,2.204-1.585,5.005-1.585h0.097v7.647c0,2.761,2.239,5,5,5s5-2.239,5-5v-7.647h31.942v7.647c0,2.761,2.238,5,5,5
		s5-2.239,5-5v-7.647h0.098c2.8,0,4.596,1.057,5.005,1.585c0.118,2.657,2.31,4.774,4.995,4.774c2.762,0,5-2.239,5-5
		C261.757,203.745,255.168,198.755,246.757,198.755z"/>
	<path d="M393.566,327.885c-6.755-27.518-48.828-58.126-87.526-76.579c25.872-22.951,60.896-36.771,61.398-36.965
		c1.341-0.521,2.394-1.595,2.887-2.947c0.493-1.352,0.381-2.851-0.309-4.114c-0.871-1.589-21.15-37.869-62.44-54.193
		c0.49-2.082,1.48-7.086,1.48-7.086c2.543-13.348,4.224-22.166-0.135-28.095c-0.542-0.737-1.164-1.395-1.857-1.977V71.145
		C307.064,31.25,268.758,0,219.857,0c-48.901,0-87.207,31.25-87.207,71.145v44.783c-0.693,0.582-1.315,1.239-1.857,1.977
		c-4.358,5.93-2.678,14.747-0.135,28.095c0,0,0.989,5.001,1.479,7.081c-41.292,16.323-61.569,52.61-62.438,54.199
		c-0.691,1.263-0.804,2.763-0.311,4.115c0.494,1.353,1.546,2.426,2.889,2.947c0.501,0.194,35.534,13.994,61.409,36.958
		c-38.701,18.452-80.781,49.064-87.538,76.585c-10.371,42.241-15.529,105.795-15.58,106.432c-0.111,1.391,0.364,2.765,1.31,3.79
		c0.947,1.025,2.278,1.608,3.674,1.608h368.612c1.395,0,2.727-0.583,3.674-1.608c0.946-1.025,1.422-2.399,1.311-3.79
		C409.097,433.68,403.937,370.125,393.566,327.885z M358.256,207.336c-14.777,6.447-54.798,25.85-75.947,55.01
		c-0.446-12.024-2.56-26.189-9.142-35.28c8.518-12.025,14.119-26.134,14.119-40.37v-2.399c8.48-1.07,14.034-11.047,17.565-21.553
		C333.698,174.518,351.573,197.433,358.256,207.336z M261.694,245.735c-1.146-0.949-2.655-1.339-4.116-1.065l-0.837,0.157
		c3.457-2.874,6.769-6.066,9.854-9.514c4.021,7.359,5.446,18.783,5.718,29.039l-8.81,4.378v-19.147
		C263.501,248.096,262.838,246.686,261.694,245.735z M256.828,231.139c-11.623,11.868-26.136,19.537-36.971,19.537
		c-10.836,0-25.349-7.668-36.972-19.537c-13.002-13.275-20.458-29.474-20.458-44.441v-68.978c0-12.449,7.282-21.143,17.708-21.143
		c1.568,0,3.045-0.735,3.99-1.987c0.945-1.251,1.248-2.873,0.819-4.381l-7.098-24.95c5.08-2.717,18.051-7.501,40.981-2.676
		c0.009,0.002,0.465,0.106,1.029,0.106c0.564,0,1.021-0.104,1.03-0.106c22.967-4.833,35.941-0.027,40.982,2.67l-7.1,24.956
		c-0.429,1.509-0.125,3.13,0.819,4.381c0.945,1.251,2.422,1.987,3.99,1.987c10.426,0,17.707,8.694,17.707,21.143v68.978
		C277.286,201.665,269.829,217.863,256.828,231.139z M235.694,258.961l17.807-3.349v21.295l-17.807-3.35
		c0.475-1.315,0.746-2.726,0.746-4.202v-6.192C236.441,261.686,236.169,260.276,235.694,258.961z M226.441,263.163v6.192
		c0,1.348-1.097,2.444-2.445,2.444h-8.278c-1.348,0-2.444-1.097-2.444-2.444v-6.192c0-1.348,1.097-2.444,2.444-2.444h8.278
		C225.344,260.719,226.441,261.815,226.441,263.163z M204.019,273.557l-17.806,3.35v-21.295l17.806,3.349
		c-0.474,1.315-0.746,2.726-0.746,4.202v6.192C203.273,270.831,203.545,272.242,204.019,273.557z M182.972,244.827l-0.835-0.157
		c-1.463-0.274-2.971,0.116-4.116,1.065c-1.146,0.95-1.808,2.361-1.808,3.849v19.147l-8.811-4.379
		c0.273-10.254,1.701-21.673,5.725-29.031C176.209,238.765,179.518,241.955,182.972,244.827z M298.1,122.779
		c1.445,0.167,2.375,0.519,2.764,1.048c1.776,2.417-1.857,21.484-1.857,21.484c-3.291,17.297-8.38,26.398-11.721,28.566v-46.341
		C289.483,124.731,293.868,122.288,298.1,122.779z M219.857,10c43.294,0,77.207,26.858,77.207,61.145v41.59
		c-3.373-0.001-6.784,0.852-9.868,2.377c-0.912-14.249-9.27-24.975-21.205-27.8l6.502-22.854c0.523-1.838-0.048-3.814-1.472-5.09
		c-0.641-0.575-15.979-13.854-51.163-6.773c-35.19-7.083-50.524,6.198-51.165,6.773c-1.423,1.276-1.994,3.251-1.471,5.09
		l6.501,22.854c-11.937,2.826-20.295,13.552-21.206,27.803c-3.083-1.524-6.493-2.377-9.868-2.378V71.145
		C142.65,36.858,176.563,10,219.857,10z M138.85,123.827c0.388-0.528,1.318-0.881,2.763-1.048c4.23-0.482,8.616,1.954,10.814,4.758
		v46.314c-3.382-2.215-8.443-11.311-11.72-28.539C140.707,145.311,137.073,126.244,138.85,123.827z M81.448,207.333
		c6.658-9.9,24.481-32.791,53.416-44.589c3.525,10.483,9.075,20.437,17.562,21.544v2.409c0,14.235,5.602,28.345,14.119,40.37
		c-6.582,9.091-8.694,23.256-9.142,35.281C136.25,233.179,96.216,213.774,81.448,207.333z M93.122,429.715v-46.499
		c0.171-3.645,1.578-13.816,6.112-18.644c1.891-2.013,1.792-5.177-0.222-7.067c-2.013-1.891-5.177-1.792-7.067,0.222
		c-7.942,8.456-8.752,23.495-8.819,25.182c-0.003,0.065-0.004,0.131-0.004,0.196v46.61H41.007
		c1.478-16.156,6.422-65.111,14.852-99.446c5.147-20.965,41.639-51.37,85.53-71.532c7.522,7.942,13.643,16.775,16.928,26.355
		l29.235,144.623H93.122z M197.754,429.715l-29.663-146.741c-0.218-1.948-0.424-4.487-0.563-7.393l8.685,4.316v3.038
		c0,1.488,0.663,2.899,1.808,3.849c0.904,0.75,2.036,1.151,3.192,1.151c0.308,0,0.617-0.028,0.924-0.086l32.458-6.107
		c0.37,0.034,0.743,0.057,1.122,0.057h8.278c0.379,0,0.752-0.023,1.122-0.057l32.459,6.107c0.308,0.058,0.617,0.086,0.925,0.086
		c1.156,0,2.287-0.401,3.192-1.151c1.145-0.95,1.808-2.361,1.808-3.849v-3.037l8.684-4.316c-0.14,2.905-0.346,5.444-0.564,7.392
		l-29.662,146.741H197.754z M356.591,429.715v-46.61c0-0.065-0.001-0.131-0.004-0.196c-0.066-1.687-0.877-16.726-8.818-25.182
		c-1.89-2.014-5.057-2.113-7.067-0.222c-2.013,1.89-2.112,5.055-0.222,7.067c4.536,4.83,5.942,15.01,6.111,18.642v46.501h-94.429
		l29.232-144.616c3.282-9.575,9.405-18.406,16.933-26.35c43.888,20.162,80.382,50.556,85.528,71.52
		c8.429,34.332,13.373,83.286,14.852,99.446H356.591z"/>
</g>
<g>
</g>
<g>
</g>
<g>
</g>
<g>
</g>
<g>
</g>
<g>
</g>
<g>
</g>
<g>
</g>
<g>
</g>
<g>
</g>
<g>
</g>
<g>
</g>
<g>
</g>
<g>
</g>
<g>
</g>
</svg>
